<svg width="28" height="28" viewBox="0 0 28 28" fill="none" xmlns="http://www.w3.org/2000/svg">
<mask id="mask0_17_625" style="mask-type:alpha" maskUnits="userSpaceOnUse" x="0" y="0" width="28" height="28">
<rect width="28" height="28" fill="#D9D9D9"/>
</mask>
<g mask="url(#mask0_17_625)">
<path d="M13.6667 11.3333V7.83333H10.1667V5.5H13.6667V2H16V5.5H19.5V7.83333H16V11.3333H13.6667ZM9 26.5C8.35833 26.5 7.80903 26.2715 7.35208 25.8146C6.89514 25.3576 6.66667 24.8083 6.66667 24.1667C6.66667 23.525 6.89514 22.9757 7.35208 22.5187C7.80903 22.0618 8.35833 21.8333 9 21.8333C9.64167 21.8333 10.191 22.0618 10.6479 22.5187C11.1049 22.9757 11.3333 23.525 11.3333 24.1667C11.3333 24.8083 11.1049 25.3576 10.6479 25.8146C10.191 26.2715 9.64167 26.5 9 26.5ZM20.6667 26.5C20.025 26.5 19.4757 26.2715 19.0187 25.8146C18.5618 25.3576 18.3333 24.8083 18.3333 24.1667C18.3333 23.525 18.5618 22.9757 19.0187 22.5187C19.4757 22.0618 20.025 21.8333 20.6667 21.8333C21.3083 21.8333 21.8576 22.0618 22.3146 22.5187C22.7715 22.9757 23 23.525 23 24.1667C23 24.8083 22.7715 25.3576 22.3146 25.8146C21.8576 26.2715 21.3083 26.5 20.6667 26.5ZM2 5.5V3.16667H5.82083L10.7792 13.6667H18.9458L23.4958 5.5H26.15L21.0167 14.775C20.8028 15.1639 20.516 15.4653 20.1562 15.6792C19.7965 15.8931 19.4028 16 18.975 16H10.2833L9 18.3333H23V20.6667H9C8.125 20.6667 7.45903 20.2875 7.00208 19.5292C6.54514 18.7708 6.53056 18.0028 6.95833 17.225L8.53333 14.3667L4.33333 5.5H2Z" fill="white"/>
</g>
</svg>
