<svg xmlns="http://www.w3.org/2000/svg" xmlns:xlink="http://www.w3.org/1999/xlink" width="280" zoomAndPan="magnify" viewBox="0 0 210 89.999999" height="120" preserveAspectRatio="xMidYMid meet" version="1.0"><defs><g/></defs><g fill="#ffffff" fill-opacity="1"><g transform="translate(16.265931, 77.181919)"><g><path d="M 41.6875 -51.109375 C 43.394531 -50.203125 44.472656 -48.867188 44.921875 -47.109375 C 43.921875 -41.484375 43.015625 -35.894531 42.203125 -30.34375 C 41.398438 -24.789062 40.625 -20.140625 39.875 -16.390625 C 39.125 -12.648438 38.609375 -9.847656 38.328125 -7.984375 C 38.046875 -6.128906 37.734375 -4.269531 37.390625 -2.40625 L 36.9375 -0.828125 C 36.832031 -0.273438 36.726562 0.238281 36.625 0.71875 C 36.53125 1.195312 36.429688 1.710938 36.328125 2.265625 C 34.921875 3.867188 33.015625 4.671875 30.609375 4.671875 C 28.046875 4.671875 26.007812 4.019531 24.5 2.71875 C 23.59375 2.007812 23.441406 0.523438 24.046875 -1.734375 C 24.296875 -2.640625 24.457031 -3.804688 24.53125 -5.234375 C 24.601562 -6.671875 24.691406 -7.863281 24.796875 -8.8125 L 24.796875 -8.96875 C 23.285156 -8.414062 21.925781 -7.695312 20.71875 -6.8125 C 19.519531 -5.9375 18.769531 -5.382812 18.46875 -5.15625 C 18.164062 -4.9375 17.757812 -4.765625 17.25 -4.640625 C 16.75 -4.515625 16.300781 -4.425781 15.90625 -4.375 C 14.945312 -4.320312 14.289062 -4.171875 13.9375 -3.921875 C 11.03125 1.304688 8.421875 4.222656 6.109375 4.828125 C 4.648438 5.273438 3.191406 5.382812 1.734375 5.15625 C 0.273438 4.9375 -0.878906 4.070312 -1.734375 2.5625 C -3.335938 1.050781 -2.9375 -3.066406 -0.53125 -9.796875 C 0.78125 -13.367188 2.65625 -17.65625 5.09375 -22.65625 C 7.53125 -27.65625 9.878906 -32.015625 12.140625 -35.734375 C 17.015625 -43.722656 22.363281 -50.453125 28.1875 -55.921875 C 29.144531 -56.328125 30.175781 -56.789062 31.28125 -57.3125 C 32.382812 -57.84375 33.476562 -58.132812 34.5625 -58.1875 C 35.644531 -58.238281 36.757812 -58.113281 37.90625 -57.8125 C 39.0625 -57.507812 40.046875 -57.054688 40.859375 -56.453125 C 42.710938 -55.046875 42.988281 -53.265625 41.6875 -51.109375 Z M 25.546875 -31.28125 C 24.492188 -28.269531 23.4375 -25.492188 22.375 -22.953125 C 21.320312 -20.410156 20.421875 -18.1875 19.671875 -16.28125 L 25.625 -16.5 C 26.03125 -19.71875 26.484375 -22.910156 26.984375 -26.078125 C 27.484375 -29.242188 27.960938 -32.410156 28.421875 -35.578125 Z M 23.515625 -16.203125 C 24.222656 -16.203125 24.925781 -16.253906 25.625 -16.359375 L 25.625 -16.4375 C 24.96875 -16.382812 24.363281 -16.332031 23.8125 -16.28125 C 23.257812 -16.226562 23.160156 -16.203125 23.515625 -16.203125 Z M 23.515625 -16.203125 "/></g></g></g><g fill="#ffffff" fill-opacity="1"><g transform="translate(58.772962, 77.181919)"><g><path d="M 26.15625 3.625 C 25.101562 3.914062 24.097656 4.070312 23.140625 4.09375 C 22.179688 4.125 21.210938 4.164062 20.234375 4.21875 C 19.253906 4.269531 17.910156 4.296875 16.203125 4.296875 C 14.492188 4.296875 11.929688 4.242188 8.515625 4.140625 C 7.710938 4.191406 6.910156 4.21875 6.109375 4.21875 C 5.304688 4.21875 4.550781 4.066406 3.84375 3.765625 C 2.289062 3.109375 1.238281 1.601562 0.6875 -0.75 C 0.425781 -1.851562 0.132812 -2.628906 -0.1875 -3.078125 C -0.507812 -3.535156 -0.773438 -3.96875 -0.984375 -4.375 C -1.484375 -5.175781 -1.441406 -6.503906 -0.859375 -8.359375 C -0.285156 -10.222656 0.453125 -12.523438 1.359375 -15.265625 C 2.265625 -18.003906 3.296875 -20.90625 4.453125 -23.96875 C 7.160156 -31.257812 9.597656 -37.039062 11.765625 -41.3125 C 12.617188 -43.21875 13.359375 -44.875 13.984375 -46.28125 C 14.609375 -47.6875 15.171875 -48.90625 15.671875 -49.9375 C 16.179688 -50.96875 16.4375 -51.507812 16.4375 -51.5625 C 16.9375 -53.46875 18.867188 -55.070312 22.234375 -56.375 C 25.503906 -57.738281 28.46875 -58.09375 31.125 -57.4375 C 34.09375 -56.6875 35.398438 -54.726562 35.046875 -51.5625 C 34.347656 -48.445312 33.304688 -45.328125 31.921875 -42.203125 C 30.535156 -39.085938 28.960938 -35.820312 27.203125 -32.40625 C 25.453125 -28.988281 23.546875 -25.367188 21.484375 -21.546875 C 19.421875 -17.734375 17.382812 -13.59375 15.375 -9.125 C 15.320312 -8.914062 15.425781 -8.738281 15.6875 -8.59375 C 16.332031 -8.644531 17.242188 -8.84375 18.421875 -9.1875 C 19.609375 -9.539062 20.84375 -9.851562 22.125 -10.125 C 23.40625 -10.40625 24.671875 -10.546875 25.921875 -10.546875 C 27.179688 -10.546875 28.238281 -10.222656 29.09375 -9.578125 C 29.039062 -8.671875 29.265625 -7.953125 29.765625 -7.421875 C 30.273438 -6.898438 30.78125 -6.382812 31.28125 -5.875 C 32.539062 -4.570312 32.640625 -2.835938 31.578125 -0.671875 C 30.578125 1.429688 28.769531 2.863281 26.15625 3.625 Z M 26.15625 3.625 "/></g></g></g><g fill="#ffffff" fill-opacity="1"><g transform="translate(93.969385, 77.181919)"><g><path d="M 15.296875 -49.890625 C 18.460938 -53.515625 21.984375 -55.78125 25.859375 -56.6875 C 28.515625 -57.332031 31.023438 -57.226562 33.390625 -56.375 C 35.253906 -58.332031 37.664062 -59.035156 40.625 -58.484375 C 43.34375 -57.984375 45.65625 -56.453125 47.5625 -53.890625 C 47.664062 -53.535156 47.878906 -53.003906 48.203125 -52.296875 C 48.523438 -51.597656 48.835938 -50.820312 49.140625 -49.96875 C 51.359375 -44.84375 51.535156 -38.109375 49.671875 -29.765625 C 47.359375 -19.421875 43.265625 -10.65625 37.390625 -3.46875 C 35.578125 -1.257812 33.539062 0.570312 31.28125 2.03125 C 27.664062 4.800781 23.34375 6.035156 18.3125 5.734375 C 15.195312 5.578125 12.585938 4.796875 10.484375 3.390625 C 2.085938 -0.773438 -0.648438 -9.46875 2.265625 -22.6875 C 4.671875 -33.539062 9.015625 -42.609375 15.296875 -49.890625 Z M 16.203125 -9.875 L 16.125 -9.421875 L 16.28125 -8.59375 C 16.582031 -7.03125 17.082031 -5.832031 17.78125 -5 C 18.488281 -4.175781 19.066406 -3.664062 19.515625 -3.46875 C 20.023438 -3.863281 20.53125 -4.238281 21.03125 -4.59375 C 21.53125 -4.945312 21.984375 -5.375 22.390625 -5.875 C 25.804688 -10.09375 28.46875 -15.617188 30.375 -22.453125 C 32.28125 -29.296875 32.984375 -35.628906 32.484375 -41.453125 C 30.523438 -38.941406 28.460938 -36.050781 26.296875 -32.78125 C 24.140625 -29.519531 22.4375 -26.734375 21.1875 -24.421875 C 18.320312 -19.046875 16.660156 -14.195312 16.203125 -9.875 Z M 16.203125 -9.875 "/></g></g></g><g fill="#ffffff" fill-opacity="1"><g transform="translate(142.12895, 77.181919)"><g><path d="M 36.78125 -31.8125 C 41.90625 -47.238281 45.320312 -54.953125 47.03125 -54.953125 C 47.226562 -54.953125 47.457031 -54.925781 47.71875 -54.875 C 48.519531 -54.820312 49.421875 -55.148438 50.421875 -55.859375 C 51.734375 -56.960938 53.253906 -57.8125 54.984375 -58.40625 C 56.722656 -59.007812 58.421875 -59.238281 60.078125 -59.09375 C 63.941406 -58.738281 66.378906 -56.703125 67.390625 -52.984375 L 67.390625 -52.765625 C 67.140625 -52.054688 66.882812 -51.476562 66.625 -51.03125 L 66.9375 -51.03125 C 65.675781 -49.46875 64.46875 -47.441406 63.3125 -44.953125 C 62.15625 -42.472656 61.273438 -40.539062 60.671875 -39.15625 C 60.066406 -37.769531 59.210938 -36.019531 58.109375 -33.90625 C 57.003906 -31.800781 55.734375 -29.21875 54.296875 -26.15625 C 52.867188 -23.09375 51.378906 -20.050781 49.828125 -17.03125 C 46.109375 -9.800781 42.414062 -4.125 38.75 0 C 36.882812 2.257812 34.367188 3.363281 31.203125 3.3125 C 29.847656 3.257812 28.539062 2.90625 27.28125 2.25 C 26.03125 1.601562 25.050781 0.601562 24.34375 -0.75 L 22.765625 -5.5 C 22.109375 -4.945312 21.351562 -4.242188 20.5 -3.390625 C 19.644531 -2.535156 18.738281 -1.65625 17.78125 -0.75 C 15.570312 1.351562 13.863281 2.457031 12.65625 2.5625 C 11.457031 2.664062 10.429688 2.675781 9.578125 2.59375 C 8.722656 2.519531 7.914062 2.332031 7.15625 2.03125 C 5.445312 1.382812 4.34375 0.128906 3.84375 -1.734375 C 2.988281 -10.328125 3.414062 -21.304688 5.125 -34.671875 C 5.570312 -37.941406 5.972656 -41.160156 6.328125 -44.328125 C 7.179688 -48.796875 8.789062 -52.007812 11.15625 -53.96875 C 13.164062 -55.675781 15.125 -56.175781 17.03125 -55.46875 C 17.882812 -55.175781 18.535156 -54.675781 18.984375 -53.96875 C 19.441406 -53.257812 19.597656 -52.40625 19.453125 -51.40625 C 19.546875 -48.34375 19.519531 -46.054688 19.375 -44.546875 C 19.164062 -41.984375 19.085938 -40.097656 19.140625 -38.890625 C 19.191406 -37.679688 19.179688 -36.6875 19.109375 -35.90625 C 19.035156 -35.132812 18.984375 -34.410156 18.953125 -33.734375 C 18.929688 -33.054688 18.957031 -32.503906 19.03125 -32.078125 C 19.101562 -31.648438 19.289062 -31.5625 19.59375 -31.8125 C 20.75 -34.269531 21.726562 -36.050781 22.53125 -37.15625 C 23.34375 -38.257812 24.195312 -39.414062 25.09375 -40.625 C 26.5 -41.882812 27.734375 -42.363281 28.796875 -42.0625 C 29.347656 -41.957031 29.925781 -41.765625 30.53125 -41.484375 C 31.132812 -41.210938 31.9375 -40.976562 32.9375 -40.78125 C 33.59375 -40.226562 34.019531 -39.625 34.21875 -38.96875 C 34.375 -38.820312 34.523438 -38.679688 34.671875 -38.546875 C 34.828125 -38.421875 34.941406 -38.269531 35.015625 -38.09375 C 35.085938 -37.925781 35.210938 -37.539062 35.390625 -36.9375 C 35.566406 -36.332031 35.753906 -35.691406 35.953125 -35.015625 C 36.148438 -34.335938 36.320312 -33.679688 36.46875 -33.046875 C 36.625 -32.421875 36.726562 -32.007812 36.78125 -31.8125 Z M 38.59375 -0.21875 C 38.59375 -0.125 38.601562 -0.113281 38.625 -0.1875 C 38.65625 -0.257812 38.671875 -0.347656 38.671875 -0.453125 Z M 38.59375 -0.21875 "/></g></g></g><g fill="#ffcc00" fill-opacity="1"><g transform="translate(12.934885, 73.850873)"><g><path d="M 41.6875 -51.109375 C 43.394531 -50.203125 44.472656 -48.867188 44.921875 -47.109375 C 43.921875 -41.484375 43.015625 -35.894531 42.203125 -30.34375 C 41.398438 -24.789062 40.625 -20.140625 39.875 -16.390625 C 39.125 -12.648438 38.609375 -9.847656 38.328125 -7.984375 C 38.046875 -6.128906 37.734375 -4.269531 37.390625 -2.40625 L 36.9375 -0.828125 C 36.832031 -0.273438 36.726562 0.238281 36.625 0.71875 C 36.53125 1.195312 36.429688 1.710938 36.328125 2.265625 C 34.921875 3.867188 33.015625 4.671875 30.609375 4.671875 C 28.046875 4.671875 26.007812 4.019531 24.5 2.71875 C 23.59375 2.007812 23.441406 0.523438 24.046875 -1.734375 C 24.296875 -2.640625 24.457031 -3.804688 24.53125 -5.234375 C 24.601562 -6.671875 24.691406 -7.863281 24.796875 -8.8125 L 24.796875 -8.96875 C 23.285156 -8.414062 21.925781 -7.695312 20.71875 -6.8125 C 19.519531 -5.9375 18.769531 -5.382812 18.46875 -5.15625 C 18.164062 -4.9375 17.757812 -4.765625 17.25 -4.640625 C 16.75 -4.515625 16.300781 -4.425781 15.90625 -4.375 C 14.945312 -4.320312 14.289062 -4.171875 13.9375 -3.921875 C 11.03125 1.304688 8.421875 4.222656 6.109375 4.828125 C 4.648438 5.273438 3.191406 5.382812 1.734375 5.15625 C 0.273438 4.9375 -0.878906 4.070312 -1.734375 2.5625 C -3.335938 1.050781 -2.9375 -3.066406 -0.53125 -9.796875 C 0.78125 -13.367188 2.65625 -17.65625 5.09375 -22.65625 C 7.53125 -27.65625 9.878906 -32.015625 12.140625 -35.734375 C 17.015625 -43.722656 22.363281 -50.453125 28.1875 -55.921875 C 29.144531 -56.328125 30.175781 -56.789062 31.28125 -57.3125 C 32.382812 -57.84375 33.476562 -58.132812 34.5625 -58.1875 C 35.644531 -58.238281 36.757812 -58.113281 37.90625 -57.8125 C 39.0625 -57.507812 40.046875 -57.054688 40.859375 -56.453125 C 42.710938 -55.046875 42.988281 -53.265625 41.6875 -51.109375 Z M 25.546875 -31.28125 C 24.492188 -28.269531 23.4375 -25.492188 22.375 -22.953125 C 21.320312 -20.410156 20.421875 -18.1875 19.671875 -16.28125 L 25.625 -16.5 C 26.03125 -19.71875 26.484375 -22.910156 26.984375 -26.078125 C 27.484375 -29.242188 27.960938 -32.410156 28.421875 -35.578125 Z M 23.515625 -16.203125 C 24.222656 -16.203125 24.925781 -16.253906 25.625 -16.359375 L 25.625 -16.4375 C 24.96875 -16.382812 24.363281 -16.332031 23.8125 -16.28125 C 23.257812 -16.226562 23.160156 -16.203125 23.515625 -16.203125 Z M 23.515625 -16.203125 "/></g></g></g><g fill="#ffcc00" fill-opacity="1"><g transform="translate(55.441915, 73.850873)"><g><path d="M 26.15625 3.625 C 25.101562 3.914062 24.097656 4.070312 23.140625 4.09375 C 22.179688 4.125 21.210938 4.164062 20.234375 4.21875 C 19.253906 4.269531 17.910156 4.296875 16.203125 4.296875 C 14.492188 4.296875 11.929688 4.242188 8.515625 4.140625 C 7.710938 4.191406 6.910156 4.21875 6.109375 4.21875 C 5.304688 4.21875 4.550781 4.066406 3.84375 3.765625 C 2.289062 3.109375 1.238281 1.601562 0.6875 -0.75 C 0.425781 -1.851562 0.132812 -2.628906 -0.1875 -3.078125 C -0.507812 -3.535156 -0.773438 -3.96875 -0.984375 -4.375 C -1.484375 -5.175781 -1.441406 -6.503906 -0.859375 -8.359375 C -0.285156 -10.222656 0.453125 -12.523438 1.359375 -15.265625 C 2.265625 -18.003906 3.296875 -20.90625 4.453125 -23.96875 C 7.160156 -31.257812 9.597656 -37.039062 11.765625 -41.3125 C 12.617188 -43.21875 13.359375 -44.875 13.984375 -46.28125 C 14.609375 -47.6875 15.171875 -48.90625 15.671875 -49.9375 C 16.179688 -50.96875 16.4375 -51.507812 16.4375 -51.5625 C 16.9375 -53.46875 18.867188 -55.070312 22.234375 -56.375 C 25.503906 -57.738281 28.46875 -58.09375 31.125 -57.4375 C 34.09375 -56.6875 35.398438 -54.726562 35.046875 -51.5625 C 34.347656 -48.445312 33.304688 -45.328125 31.921875 -42.203125 C 30.535156 -39.085938 28.960938 -35.820312 27.203125 -32.40625 C 25.453125 -28.988281 23.546875 -25.367188 21.484375 -21.546875 C 19.421875 -17.734375 17.382812 -13.59375 15.375 -9.125 C 15.320312 -8.914062 15.425781 -8.738281 15.6875 -8.59375 C 16.332031 -8.644531 17.242188 -8.84375 18.421875 -9.1875 C 19.609375 -9.539062 20.84375 -9.851562 22.125 -10.125 C 23.40625 -10.40625 24.671875 -10.546875 25.921875 -10.546875 C 27.179688 -10.546875 28.238281 -10.222656 29.09375 -9.578125 C 29.039062 -8.671875 29.265625 -7.953125 29.765625 -7.421875 C 30.273438 -6.898438 30.78125 -6.382812 31.28125 -5.875 C 32.539062 -4.570312 32.640625 -2.835938 31.578125 -0.671875 C 30.578125 1.429688 28.769531 2.863281 26.15625 3.625 Z M 26.15625 3.625 "/></g></g></g><g fill="#ffcc00" fill-opacity="1"><g transform="translate(90.638339, 73.850873)"><g><path d="M 15.296875 -49.890625 C 18.460938 -53.515625 21.984375 -55.78125 25.859375 -56.6875 C 28.515625 -57.332031 31.023438 -57.226562 33.390625 -56.375 C 35.253906 -58.332031 37.664062 -59.035156 40.625 -58.484375 C 43.34375 -57.984375 45.65625 -56.453125 47.5625 -53.890625 C 47.664062 -53.535156 47.878906 -53.003906 48.203125 -52.296875 C 48.523438 -51.597656 48.835938 -50.820312 49.140625 -49.96875 C 51.359375 -44.84375 51.535156 -38.109375 49.671875 -29.765625 C 47.359375 -19.421875 43.265625 -10.65625 37.390625 -3.46875 C 35.578125 -1.257812 33.539062 0.570312 31.28125 2.03125 C 27.664062 4.800781 23.34375 6.035156 18.3125 5.734375 C 15.195312 5.578125 12.585938 4.796875 10.484375 3.390625 C 2.085938 -0.773438 -0.648438 -9.46875 2.265625 -22.6875 C 4.671875 -33.539062 9.015625 -42.609375 15.296875 -49.890625 Z M 16.203125 -9.875 L 16.125 -9.421875 L 16.28125 -8.59375 C 16.582031 -7.03125 17.082031 -5.832031 17.78125 -5 C 18.488281 -4.175781 19.066406 -3.664062 19.515625 -3.46875 C 20.023438 -3.863281 20.53125 -4.238281 21.03125 -4.59375 C 21.53125 -4.945312 21.984375 -5.375 22.390625 -5.875 C 25.804688 -10.09375 28.46875 -15.617188 30.375 -22.453125 C 32.28125 -29.296875 32.984375 -35.628906 32.484375 -41.453125 C 30.523438 -38.941406 28.460938 -36.050781 26.296875 -32.78125 C 24.140625 -29.519531 22.4375 -26.734375 21.1875 -24.421875 C 18.320312 -19.046875 16.660156 -14.195312 16.203125 -9.875 Z M 16.203125 -9.875 "/></g></g></g><g fill="#ffcc00" fill-opacity="1"><g transform="translate(138.797903, 73.850873)"><g><path d="M 36.78125 -31.8125 C 41.90625 -47.238281 45.320312 -54.953125 47.03125 -54.953125 C 47.226562 -54.953125 47.457031 -54.925781 47.71875 -54.875 C 48.519531 -54.820312 49.421875 -55.148438 50.421875 -55.859375 C 51.734375 -56.960938 53.253906 -57.8125 54.984375 -58.40625 C 56.722656 -59.007812 58.421875 -59.238281 60.078125 -59.09375 C 63.941406 -58.738281 66.378906 -56.703125 67.390625 -52.984375 L 67.390625 -52.765625 C 67.140625 -52.054688 66.882812 -51.476562 66.625 -51.03125 L 66.9375 -51.03125 C 65.675781 -49.46875 64.46875 -47.441406 63.3125 -44.953125 C 62.15625 -42.472656 61.273438 -40.539062 60.671875 -39.15625 C 60.066406 -37.769531 59.210938 -36.019531 58.109375 -33.90625 C 57.003906 -31.800781 55.734375 -29.21875 54.296875 -26.15625 C 52.867188 -23.09375 51.378906 -20.050781 49.828125 -17.03125 C 46.109375 -9.800781 42.414062 -4.125 38.75 0 C 36.882812 2.257812 34.367188 3.363281 31.203125 3.3125 C 29.847656 3.257812 28.539062 2.90625 27.28125 2.25 C 26.03125 1.601562 25.050781 0.601562 24.34375 -0.75 L 22.765625 -5.5 C 22.109375 -4.945312 21.351562 -4.242188 20.5 -3.390625 C 19.644531 -2.535156 18.738281 -1.65625 17.78125 -0.75 C 15.570312 1.351562 13.863281 2.457031 12.65625 2.5625 C 11.457031 2.664062 10.429688 2.675781 9.578125 2.59375 C 8.722656 2.519531 7.914062 2.332031 7.15625 2.03125 C 5.445312 1.382812 4.34375 0.128906 3.84375 -1.734375 C 2.988281 -10.328125 3.414062 -21.304688 5.125 -34.671875 C 5.570312 -37.941406 5.972656 -41.160156 6.328125 -44.328125 C 7.179688 -48.796875 8.789062 -52.007812 11.15625 -53.96875 C 13.164062 -55.675781 15.125 -56.175781 17.03125 -55.46875 C 17.882812 -55.175781 18.535156 -54.675781 18.984375 -53.96875 C 19.441406 -53.257812 19.597656 -52.40625 19.453125 -51.40625 C 19.546875 -48.34375 19.519531 -46.054688 19.375 -44.546875 C 19.164062 -41.984375 19.085938 -40.097656 19.140625 -38.890625 C 19.191406 -37.679688 19.179688 -36.6875 19.109375 -35.90625 C 19.035156 -35.132812 18.984375 -34.410156 18.953125 -33.734375 C 18.929688 -33.054688 18.957031 -32.503906 19.03125 -32.078125 C 19.101562 -31.648438 19.289062 -31.5625 19.59375 -31.8125 C 20.75 -34.269531 21.726562 -36.050781 22.53125 -37.15625 C 23.34375 -38.257812 24.195312 -39.414062 25.09375 -40.625 C 26.5 -41.882812 27.734375 -42.363281 28.796875 -42.0625 C 29.347656 -41.957031 29.925781 -41.765625 30.53125 -41.484375 C 31.132812 -41.210938 31.9375 -40.976562 32.9375 -40.78125 C 33.59375 -40.226562 34.019531 -39.625 34.21875 -38.96875 C 34.375 -38.820312 34.523438 -38.679688 34.671875 -38.546875 C 34.828125 -38.421875 34.941406 -38.269531 35.015625 -38.09375 C 35.085938 -37.925781 35.210938 -37.539062 35.390625 -36.9375 C 35.566406 -36.332031 35.753906 -35.691406 35.953125 -35.015625 C 36.148438 -34.335938 36.320312 -33.679688 36.46875 -33.046875 C 36.625 -32.421875 36.726562 -32.007812 36.78125 -31.8125 Z M 38.59375 -0.21875 C 38.59375 -0.125 38.601562 -0.113281 38.625 -0.1875 C 38.65625 -0.257812 38.671875 -0.347656 38.671875 -0.453125 Z M 38.59375 -0.21875 "/></g></g></g></svg>