<svg width="200" height="200" viewBox="0 0 200 200" fill="none" xmlns="http://www.w3.org/2000/svg">
<g clip-path="url(#clip0_1_160)">
<path fill-rule="evenodd" clip-rule="evenodd" d="M0 0H200V200H0V0Z" fill="white"/>
<path fill-rule="evenodd" clip-rule="evenodd" d="M100 19.3924C139.394 19.3924 171.525 42.0957 171.525 69.9319C171.525 97.7682 139.394 120.47 100 120.47C60.6051 120.47 28.4754 97.7682 28.4754 69.9319C28.4754 42.0957 60.6061 19.3924 100 19.3924ZM59.4026 166.911H46.3674V165.607H48.9251V148.421H40.9409V165.607H43.4985V166.911H30.4623V165.607H32.9411V132.322H30.4623V131.019H43.4186V132.322H40.9409V147.014H48.9251V132.322H46.3674V131.019H59.4026V132.322H56.874V165.607H59.4026V166.911ZM86.2126 167.353H88.1851V144.613H86.2126V144.086H86.2085V143.202H94.2425V143.897C95.3869 143.274 96.8167 142.965 98.5453 142.965C102.602 142.965 104.642 144.462 104.642 147.47V151.025H98.5453V146.263C98.5453 145.019 97.9207 144.396 96.6725 144.396C95.8673 144.396 95.0487 144.674 94.2414 145.231V167.353H96.2263V168.758H86.2085V167.872H86.2126V167.353ZM106.607 167.353H108.778V144.613H106.597V143.202H115.576V167.351H117.76V168.757H106.596V167.871H106.606L106.607 167.353ZM122.392 167.353H124.603V144.613H122.398V144.086H122.394V143.202H131.375V143.897C132.652 143.274 134.338 142.965 136.429 142.965C141.37 142.965 143.841 144.462 143.841 147.47V167.353H146.022V168.758H137.069V167.353H137.071V146.263C137.071 145.019 136.228 144.396 134.528 144.396C133.422 144.393 132.335 144.681 131.376 145.231V167.353H133.581V167.873H133.583V168.759H122.393L122.392 167.353ZM170.2 143.208H170.204V144.613H168.155V172.241C168.155 174.592 167.336 176.576 165.686 178.188C164.038 179.801 161.882 180.608 159.252 180.608C156.771 180.608 154.632 179.787 152.804 178.145C150.977 176.506 150.063 174.536 150.063 172.241V170.749H156.457V175.835C156.457 178.038 157.385 179.13 159.251 179.13C160.929 179.13 161.774 178.038 161.774 175.835V167.577C160.575 168.209 158.992 168.519 157.016 168.519C152.381 168.519 150.063 167.005 150.063 163.981V147.469C150.063 144.462 152.381 142.964 157.016 142.964C158.992 142.964 160.575 143.274 161.774 143.896V143.201H170.199V143.208H170.2ZM81.8382 163.982C81.8382 165.39 80.9801 166.581 79.265 167.548C77.5478 168.515 75.3782 168.996 72.7645 168.996C70.1498 168.996 67.9782 168.514 66.2496 167.548C64.5199 166.581 63.6494 165.391 63.6494 163.982V147.979C63.6494 146.569 64.5209 145.381 66.2496 144.414C67.9782 143.447 70.1498 142.965 72.7645 142.965C75.3782 142.965 77.5478 143.448 79.265 144.414C80.9801 145.381 81.8382 146.568 81.8382 147.979V156.373H69.934V165.645C69.934 166.954 70.873 167.611 72.7635 167.611C72.834 167.611 72.9036 167.609 72.972 167.607L73.2148 167.605L73.6548 167.588L74.0823 167.56L74.4973 167.522L74.9019 167.473L75.2942 167.414L75.6739 167.345L76.0422 167.266L76.3981 167.177L76.7426 167.078L77.0757 166.969L77.3963 166.851L77.7065 166.722L78.0053 166.586L78.2928 166.439L78.5553 166.291L79.0668 165.961L79.4777 165.637L79.8004 165.321L80.0421 165.017L80.2144 164.727L80.3275 164.446L80.3939 164.159L80.4208 163.792V160.938H81.8371L81.8382 163.982ZM75.5515 154.963V146.265C75.5515 144.953 74.6259 144.299 72.7635 144.299C70.873 144.299 69.934 144.953 69.934 146.265V154.963H75.5515ZM161.775 166.191V145.231C160.835 144.674 159.852 144.396 158.816 144.396C157.247 144.396 156.458 145.019 156.458 146.263V165.16C156.458 166.404 157.249 167.037 158.816 167.037C159.852 167.036 160.835 166.749 161.775 166.191ZM112.055 133.856C113.939 133.856 115.476 135.392 115.476 137.277C115.476 139.162 113.94 140.698 112.055 140.698C110.172 140.698 108.634 139.162 108.634 137.277C108.634 135.392 110.172 133.856 112.055 133.856ZM66.98 91.7751C62.2663 90.7624 58.5528 89.066 55.8405 86.6868C54.9586 85.9128 53.3005 84.8181 53.5112 84.1468C53.7228 83.4765 56.2877 83.876 57.6594 83.9517C63.5456 84.2807 69.85 84.6511 77.4264 79.5109C80.3461 77.5301 83.406 74.5679 86.5861 71.2217C84.815 70.2308 83.1559 69.1797 81.6556 68.0487C67.2695 57.2143 56.9663 44.9376 57.924 39.4955L57.6905 39.3223C57.8109 39.1386 57.9551 38.9747 58.117 38.8211C58.201 38.6146 58.3027 38.4196 58.4293 38.2401L58.6762 38.3947C63.3972 35.5247 78.5802 40.6587 93.9042 50.1204C96.411 51.6674 98.8794 53.6533 101.305 55.8737C103.731 53.6533 106.202 51.6674 108.708 50.1204C124.033 40.6587 139.215 35.5257 143.935 38.3947L144.182 38.2401C144.309 38.4212 144.414 38.6161 144.497 38.8211C144.656 38.9736 144.801 39.1386 144.922 39.3223L144.689 39.4955C145.647 44.9376 135.342 57.2143 120.956 68.0498C119.457 69.1797 117.795 70.2318 116.023 71.2217C119.205 74.5689 122.265 77.5312 125.185 79.5119C132.763 84.6521 139.067 84.2817 144.952 83.9528C146.324 83.876 148.89 83.4776 149.1 84.1478C149.311 84.8181 147.653 85.9138 146.772 86.6878C144.061 89.067 140.346 90.7645 135.633 91.7761C136.402 96.5355 136.173 100.612 134.942 104.005C134.542 105.107 134.125 107.051 133.424 107.097C132.722 107.143 132.161 104.609 131.733 103.304C129.899 97.7007 127.951 91.6942 120.409 86.5052C115.748 83.3001 108.609 80.674 101.305 77.8155C94.0028 80.674 86.8632 83.2991 82.2024 86.5052C74.6602 91.6942 72.7126 97.7018 70.8782 103.304C70.4507 104.609 69.8894 107.144 69.188 107.097C68.4866 107.05 68.0695 105.107 67.67 104.005C66.4394 100.611 66.2101 96.5345 66.98 91.7751ZM71.7228 44.3649C71.0443 43.9032 70.2105 43.7292 69.4039 43.8811C68.5974 44.033 67.884 44.4983 67.4199 45.1753C66.9582 45.8537 66.7842 46.6876 66.9361 47.4941C67.088 48.3006 67.5534 49.0141 68.2303 49.4781C68.9088 49.9398 69.7426 50.1138 70.5492 49.9619C71.3557 49.81 72.0691 49.3447 72.5331 48.6677C72.9946 47.9892 73.1684 47.1554 73.0166 46.349C72.8647 45.5425 72.3995 44.8291 71.7228 44.3649ZM130.891 44.3649C131.569 43.9032 132.403 43.7293 133.209 43.8812C134.016 44.0331 134.729 44.4984 135.193 45.1753C135.654 45.8537 135.828 46.6876 135.677 47.4941C135.525 48.3006 135.059 49.0141 134.382 49.4781C133.704 49.9398 132.87 50.1137 132.064 49.9618C131.258 49.81 130.544 49.3446 130.081 48.6677C129.619 47.9893 129.445 47.1554 129.597 46.3489C129.749 45.5424 130.214 44.8289 130.891 44.3649Z" fill="#2B55A2"/>
</g>
<defs>
<clipPath id="clip0_1_160">
<rect width="200" height="200" fill="white"/>
</clipPath>
</defs>
</svg>
